<svg id="Layer_1" data-name="Layer 1" xmlns="http://www.w3.org/2000/svg" xmlns:xlink="http://www.w3.org/1999/xlink" viewBox="0 0 800 800"><defs><style>.cls-1{fill:url(#linear-gradient);}.cls-2{fill:#fff;}</style><linearGradient id="linear-gradient" x1="53.53" y1="600.03" x2="746.47" y2="199.97" gradientUnits="userSpaceOnUse"><stop offset="0" stop-color="#00afbf"/><stop offset="0.2" stop-color="#00a6bf"/><stop offset="0.52" stop-color="#008cbf"/><stop offset="0.93" stop-color="#0063bf"/><stop offset="0.99" stop-color="#005cbf"/></linearGradient></defs><title>webpack.build.config</title><circle class="cls-1" cx="400" cy="400" r="400"/><path class="cls-2" d="M667.61,279.1,359.69,587a26.36,26.36,0,0,1-37.27,0l-190-190a26.36,26.36,0,0,1,0-37.27l28.85-28.86a26.36,26.36,0,0,1,37.27,0L322.42,454.77a26.36,26.36,0,0,0,37.27,0L601.48,213a26.36,26.36,0,0,1,37.27,0l28.86,28.85A26.36,26.36,0,0,1,667.61,279.1Z" transform="translate(0 0)"/></svg>